<svg xmlns="http://www.w3.org/2000/svg" viewBox="0 0 220 220"><defs>
<radialGradient id="disc" cx="38%" cy="30%" r="80%"><stop offset="0" stop-color="#4c3c7e"></stop><stop offset="58%" stop-color="#271a52"></stop><stop offset="100%" stop-color="#150d2e"></stop></radialGradient>
<radialGradient id="dep" cx="70%" cy="78%" r="64%"><stop offset="0" stop-color="#0c0626" stop-opacity=".55"></stop><stop offset="60%" stop-color="#0c0626" stop-opacity="0"></stop></radialGradient>
<radialGradient id="spc" cx="50%" cy="50%" r="50%"><stop offset="0" stop-color="#ffffff" stop-opacity=".8"></stop><stop offset="70%" stop-color="#ffffff" stop-opacity="0"></stop></radialGradient>
<radialGradient id="shad" cx="50%" cy="50%" r="50%"><stop offset="0" stop-color="#0e0722" stop-opacity=".55"></stop><stop offset="100%" stop-color="#0e0722" stop-opacity="0"></stop></radialGradient>
<linearGradient id="gold" x1="0" y1="0" x2="0" y2="1"><stop offset="0" stop-color="#fff0c4"></stop><stop offset="100%" stop-color="#d9a93e"></stop></linearGradient><radialGradient id="tw" cx="36%" cy="27%" r="80%"><stop offset="0" stop-color="#bcdcff"></stop><stop offset="46%" stop-color="#6f9fe0"></stop><stop offset="100%" stop-color="#2f4f9e"></stop></radialGradient></defs>
<ellipse cx="110" cy="200" rx="48" ry="10" fill="url(#shad)"></ellipse>
<circle cx="110" cy="103" r="84" fill="none" stroke="#e8c878" stroke-width="1" opacity=".3"></circle><line x1="110.0" y1="13.0" x2="110.0" y2="3.0" stroke="#e8c878" stroke-width="2.4" opacity=".95"></line><line x1="134.6" y1="11.2" x2="135.9" y2="6.4" stroke="#e8c878" stroke-width="1.2" opacity=".45"></line><line x1="157.5" y1="20.7" x2="160.0" y2="16.4" stroke="#e8c878" stroke-width="1.2" opacity=".45"></line><line x1="177.2" y1="35.8" x2="180.7" y2="32.3" stroke="#e8c878" stroke-width="1.2" opacity=".45"></line><line x1="192.3" y1="55.5" x2="196.6" y2="53.0" stroke="#e8c878" stroke-width="1.2" opacity=".45"></line><line x1="201.8" y1="78.4" x2="206.6" y2="77.1" stroke="#e8c878" stroke-width="1.2" opacity=".45"></line><line x1="200.0" y1="103.0" x2="210.0" y2="103.0" stroke="#e8c878" stroke-width="2.4" opacity=".95"></line><line x1="201.8" y1="127.6" x2="206.6" y2="128.9" stroke="#e8c878" stroke-width="1.2" opacity=".45"></line><line x1="192.3" y1="150.5" x2="196.6" y2="153.0" stroke="#e8c878" stroke-width="1.2" opacity=".45"></line><line x1="177.2" y1="170.2" x2="180.7" y2="173.7" stroke="#e8c878" stroke-width="1.2" opacity=".45"></line><line x1="157.5" y1="185.3" x2="160.0" y2="189.6" stroke="#e8c878" stroke-width="1.2" opacity=".45"></line><line x1="134.6" y1="194.8" x2="135.9" y2="199.6" stroke="#e8c878" stroke-width="1.2" opacity=".45"></line><line x1="110.0" y1="193.0" x2="110.0" y2="203.0" stroke="#e8c878" stroke-width="2.4" opacity=".95"></line><line x1="85.4" y1="194.8" x2="84.1" y2="199.6" stroke="#e8c878" stroke-width="1.2" opacity=".45"></line><line x1="62.5" y1="185.3" x2="60.0" y2="189.6" stroke="#e8c878" stroke-width="1.2" opacity=".45"></line><line x1="42.8" y1="170.2" x2="39.3" y2="173.7" stroke="#e8c878" stroke-width="1.2" opacity=".45"></line><line x1="27.7" y1="150.5" x2="23.4" y2="153.0" stroke="#e8c878" stroke-width="1.2" opacity=".45"></line><line x1="18.2" y1="127.6" x2="13.4" y2="128.9" stroke="#e8c878" stroke-width="1.2" opacity=".45"></line><line x1="20.0" y1="103.0" x2="10.0" y2="103.0" stroke="#e8c878" stroke-width="2.4" opacity=".95"></line><line x1="18.2" y1="78.4" x2="13.4" y2="77.1" stroke="#e8c878" stroke-width="1.2" opacity=".45"></line><line x1="27.7" y1="55.5" x2="23.4" y2="53.0" stroke="#e8c878" stroke-width="1.2" opacity=".45"></line><line x1="42.8" y1="35.8" x2="39.3" y2="32.3" stroke="#e8c878" stroke-width="1.2" opacity=".45"></line><line x1="62.5" y1="20.7" x2="60.0" y2="16.4" stroke="#e8c878" stroke-width="1.2" opacity=".45"></line><line x1="85.4" y1="11.2" x2="84.1" y2="6.4" stroke="#e8c878" stroke-width="1.2" opacity=".45"></line>
<circle cx="110" cy="103" r="74" fill="url(#tw)"></circle><circle cx="110" cy="103" r="74" fill="url(#dep)"></circle>
<text x="112" y="143" text-anchor="middle" font-family="&#39;Nanum Myeongjo&#39;,serif" font-weight="800" font-size="116" fill="#0e0722" opacity=".22">水</text>
<text x="110" y="141" text-anchor="middle" font-family="&#39;Nanum Myeongjo&#39;,serif" font-weight="800" font-size="116" fill="#eef5ff">水</text>
<ellipse cx="86" cy="72" rx="27" ry="17" fill="url(#spc)" transform="rotate(-24 86 72)"></ellipse><circle cx="70" cy="62" r="5.5" fill="#fff" opacity=".85"></circle></svg>